<svg width="699" height="240" viewBox="0 0 699 240" fill="none" xmlns="http://www.w3.org/2000/svg">
<path d="M87.4715 205.393C40.5499 185.071 15.738 164.489 4.91514 136.91C-2.64643 117.641 -1.59111 103.022 8.8296 82.6899C45.9831 10.1978 212.283 -22.9788 335.944 17.4308C360.889 25.5822 404.568 48.5683 401.882 52.1302C401.053 53.2283 381.812 51.5498 359.122 48.3987C328.344 44.1262 307.008 44.0777 275.108 48.2212C139.783 65.7407 70.7119 134.024 120.946 200.626C133.43 217.178 133.43 217.178 123.528 216.956C118.082 216.838 101.857 211.637 87.4715 205.407V205.393Z" fill="#004D76"/>
<path d="M431.176 93C430.181 93 429.352 92.8465 428.689 92.5401C428.053 92.2028 427.501 91.7735 427.031 91.2522C426.589 90.7309 426.147 90.1637 425.705 89.5504L417.166 77.454C416.862 76.9941 416.613 76.6875 416.42 76.5341C416.254 76.3808 416.019 76.2888 415.715 76.2582L415.798 75.1543C418.561 75.4609 420.786 75.093 422.471 74.0504C424.185 72.9772 425.041 71.2142 425.041 68.7611C425.041 66.7374 424.489 65.3576 423.383 64.6217C422.278 63.8858 420.882 63.5178 419.197 63.5178C417.677 63.5178 416.654 63.7478 416.13 64.2077C415.632 64.637 415.342 65.5109 415.259 66.8294L413.933 88.2166C413.877 89.2898 413.919 90.0717 414.057 90.5623C414.195 91.0529 414.485 91.3749 414.927 91.5282C415.397 91.6508 416.047 91.7275 416.876 91.7582V92.816H409V91.7582C409.525 91.7275 409.912 91.6508 410.161 91.5282C410.437 91.3749 410.631 91.0529 410.741 90.5623C410.879 90.0717 410.976 89.2898 411.031 88.2166L412.358 66.8294C412.44 65.7562 412.399 64.9896 412.233 64.5297C412.095 64.0391 411.791 63.7171 411.321 63.5638C410.879 63.4105 410.244 63.3185 409.415 63.2878V62.23H412.772C413.96 62.23 414.969 62.2146 415.798 62.184C416.627 62.1226 417.387 62.0766 418.078 62.046C418.796 62.0153 419.542 62 420.316 62C422.859 62 424.834 62.5826 426.244 63.7478C427.653 64.8823 428.358 66.4001 428.358 68.3012C428.358 69.7117 427.998 70.9842 427.28 72.1187C426.561 73.2532 425.594 74.1884 424.378 74.9243C423.162 75.6602 421.781 76.1355 420.233 76.3502V76.4421L428.358 88.0786C429.076 89.0905 429.656 89.8724 430.098 90.4243C430.54 90.9456 430.969 91.2982 431.383 91.4822C431.825 91.6662 432.364 91.7582 433 91.7582V92.816C432.668 92.8775 432.351 92.9235 432.047 92.954C431.742 92.9845 431.452 93 431.176 93Z" fill="#004D76"/>
<path d="M437.608 94C437.054 93.1968 436.777 91.9766 436.777 90.3393C436.777 89.5361 436.819 88.5321 436.902 87.3274C437.013 86.1226 437.137 84.8714 437.275 83.574C437.414 82.2765 437.525 81.0872 437.608 80.006C437.719 78.9247 437.774 78.0907 437.774 77.5037C437.774 76.8859 437.649 76.577 437.4 76.577C437.123 76.577 436.611 76.9013 435.864 77.5501C435.117 78.1988 434.384 78.9557 433.664 79.8206L433 79.0792C433.498 78.3996 434.162 77.5964 434.992 76.6697C435.823 75.7429 436.694 74.8625 437.608 74.0284C438.521 73.1943 439.309 72.5919 439.974 72.2212C440.14 72.6228 440.264 73.148 440.347 73.7967C440.43 74.4146 440.472 75.1096 440.472 75.8819C440.472 76.5615 440.417 77.4883 440.306 78.6622C440.223 79.8052 440.112 81.0254 439.974 82.3229C439.836 83.5895 439.711 84.7942 439.6 85.9372C439.517 87.0802 439.475 88.007 439.475 88.7175C439.475 89.0573 439.517 89.3971 439.6 89.7369C439.711 90.0767 439.905 90.2466 440.181 90.2466C440.79 90.2466 441.842 89.3353 443.336 87.5127L444 88.2541C443.53 88.9337 442.921 89.6597 442.174 90.432C441.426 91.1734 440.652 91.8685 439.849 92.5172C439.047 93.135 438.3 93.6293 437.608 94ZM439.351 67.3558C438.908 67.3558 438.576 67.2167 438.355 66.9387C438.134 66.6298 438.023 66.2591 438.023 65.8266C438.023 65.1161 438.286 64.4673 438.811 63.8804C439.365 63.2935 439.96 63 440.596 63C441.067 63 441.399 63.1545 441.592 63.4634C441.814 63.7414 441.925 64.0966 441.925 64.5291C441.925 65.3014 441.648 65.9656 441.094 66.5217C440.569 67.0777 439.988 67.3558 439.351 67.3558Z" fill="#004D76"/>
<path d="M444 104V102.939C445.381 102.785 446.484 101.94 447.307 100.403C448.13 98.8963 448.675 96.4826 448.94 93.162C448.994 92.5163 449.06 91.64 449.139 90.5332C449.219 89.4263 449.312 88.2272 449.418 86.9359C449.524 85.6138 449.618 84.3225 449.697 83.0619C449.803 81.7705 449.883 80.6329 449.936 79.649C449.99 78.6344 450.016 77.8965 450.016 77.4353C450.016 76.8204 449.896 76.5129 449.657 76.5129C449.392 76.5129 448.9 76.8358 448.183 77.4814C447.466 78.1271 446.762 78.8804 446.072 79.7413L445.434 79.0034C445.912 78.327 446.55 77.5276 447.347 76.6052C448.143 75.6828 448.98 74.8065 449.857 73.9764C450.733 73.1462 451.49 72.5467 452.127 72.1777C452.287 72.5774 452.406 73.1001 452.486 73.7458C452.566 74.3607 452.606 75.0525 452.606 75.8211C452.606 76.3746 452.566 77.2662 452.486 78.4961C452.433 79.6952 452.353 81.048 452.247 82.5546C452.141 84.0611 452.034 85.583 451.928 87.1204C451.822 88.6269 451.729 89.9951 451.649 91.225C451.57 92.4241 451.503 93.3003 451.45 93.8538C451.317 95.7908 450.932 97.5128 450.295 99.0191C449.684 100.557 448.847 101.756 447.785 102.616C446.723 103.508 445.461 103.969 444 104ZM451.53 67.3352C451.105 67.3352 450.786 67.1968 450.574 66.9201C450.361 66.6127 450.255 66.2437 450.255 65.8133C450.255 65.1061 450.507 64.4604 451.012 63.8763C451.543 63.2921 452.114 63 452.725 63C453.177 63 453.496 63.1537 453.681 63.4612C453.894 63.7379 454 64.0915 454 64.5219C454 65.2906 453.735 65.9516 453.203 66.5051C452.699 67.0585 452.141 67.3352 451.53 67.3352Z" fill="#004D76"/>
<path d="M461.196 94C460.452 94 459.665 93.8596 458.834 93.5787C458.033 93.2979 457.36 92.8766 456.816 92.3149C456.272 91.7532 456 91.0511 456 90.2085C456 89.3971 456.272 88.695 456.816 88.1021C457.36 87.478 458.004 86.8227 458.748 86.1362L459.436 86.8851C459.006 87.322 458.706 87.6965 458.534 88.0085C458.39 88.3205 458.319 88.6326 458.319 88.9447C458.319 89.6936 458.648 90.3333 459.307 90.8638C459.994 91.3943 460.91 91.6596 462.055 91.6596C463.401 91.6596 464.518 91.2851 465.405 90.5362C466.292 89.7872 466.736 88.7886 466.736 87.5404C466.736 86.7291 466.45 86.0426 465.877 85.4808C465.305 84.9191 464.217 84.2014 462.614 83.3277C461.812 82.8908 461.039 82.4383 460.294 81.9702C459.579 81.5021 458.992 80.9872 458.534 80.4255C458.076 79.8326 457.847 79.1773 457.847 78.4596C457.847 77.5858 458.162 76.6497 458.791 75.6511C459.45 74.6525 460.309 73.7943 461.368 73.0766C462.427 72.3588 463.601 72 464.89 72C465.892 72 466.837 72.2184 467.724 72.6553C468.611 73.0922 469.37 73.8099 470 74.8085L467.982 78.6L467.123 78.1319C467.609 77.1021 467.724 76.2596 467.466 75.6043C467.237 74.9177 466.808 74.4029 466.178 74.0596C465.548 73.7163 464.875 73.5447 464.159 73.5447C463.071 73.5447 462.17 73.9191 461.454 74.6681C460.767 75.3858 460.423 76.2908 460.423 77.383C460.423 77.7263 460.495 78.0383 460.638 78.3191C460.781 78.5688 461.11 78.8809 461.626 79.2553C462.17 79.5986 462.985 80.0822 464.074 80.7064C465.39 81.4241 466.393 82.017 467.08 82.4851C467.767 82.9532 468.239 83.4213 468.497 83.8894C468.755 84.3574 468.883 84.9503 468.883 85.6681C468.883 87.1348 468.511 88.5078 467.767 89.7872C467.051 91.0354 466.107 92.0497 464.933 92.8298C463.759 93.6097 462.513 94 461.196 94Z" fill="#004D76"/>
<path d="M477.531 94C476.741 94 475.993 93.766 475.286 93.2979C474.606 92.861 474.047 92.1433 473.612 91.1447C473.204 90.1461 473 88.8354 473 87.2128C473 85.2468 473.3 83.3588 473.898 81.5489C474.524 79.739 475.34 78.1163 476.347 76.6808C477.354 75.2454 478.456 74.1064 479.653 73.2638C480.878 72.4213 482.075 72 483.245 72C484.088 72 484.81 72.2184 485.408 72.6553C486.007 73.061 486.537 73.6227 487 74.3404L484.265 79.7702L483.408 79.3957C484.007 77.9603 484.306 76.8213 484.306 75.9787C484.333 75.1362 484.17 74.5433 483.816 74.2C483.463 73.8255 483 73.6383 482.429 73.6383C481.558 73.6383 480.728 73.9971 479.939 74.7149C479.149 75.4326 478.442 76.3844 477.816 77.5702C477.218 78.756 476.741 80.0667 476.388 81.5021C476.034 82.9376 475.857 84.3574 475.857 85.7617C475.857 87.4156 476.116 88.695 476.633 89.6C477.15 90.505 477.898 90.9574 478.878 90.9574C479.748 90.9574 480.741 90.5674 481.857 89.7872C483 88.9759 484.143 87.6497 485.286 85.8085L486.143 86.183C484.837 88.8043 483.422 90.7702 481.898 92.0809C480.374 93.3605 478.918 94 477.531 94Z" fill="#004D76"/>
<path d="M490.942 94C491.074 92.395 491.219 90.4754 491.378 88.241C491.562 85.9752 491.748 83.5835 491.932 81.0658C492.117 78.5482 492.289 76.0464 492.448 73.5602C492.606 71.0741 492.725 68.7768 492.804 66.6683C492.91 64.5283 492.963 62.7661 492.963 61.3814C492.963 60.7519 492.844 60.4373 492.606 60.4373C492.342 60.4373 491.959 60.7519 491.457 61.3814C490.955 61.9793 490.361 62.7346 489.674 63.6472L489 62.8919C489.476 62.1681 490.057 61.3499 490.744 60.4373C491.431 59.4932 492.157 58.612 492.923 57.7938C493.689 56.9755 494.402 56.3776 495.063 56C495.221 56.4091 495.34 56.9441 495.42 57.605C495.499 58.2344 495.538 58.9425 495.538 59.7292C495.538 61.4286 495.472 63.364 495.34 65.5354C495.234 67.6754 495.089 69.9412 494.904 72.3329C494.72 74.7246 494.522 77.1478 494.31 79.6025H494.389C495.05 78.2493 495.882 76.9905 496.886 75.8261C497.916 74.6302 498.973 73.6704 500.056 72.9466C501.166 72.1913 502.143 71.8137 502.988 71.8137C503.807 71.8137 504.508 72.2543 505.089 73.1354C505.696 74.0165 506 75.6687 506 78.0919C506 79.7913 505.828 81.5536 505.485 83.3789C505.168 85.2041 504.679 86.9193 504.019 88.5242C503.385 90.0977 502.592 91.388 501.641 92.395C500.69 93.4023 499.607 93.9369 498.392 94C498.207 93.3391 498.18 92.6468 498.312 91.923C498.445 91.1677 498.748 90.617 499.224 90.2708C499.382 90.4282 499.567 90.5855 499.779 90.7429C499.99 90.8687 500.201 90.9317 500.413 90.9317C500.914 90.9317 501.337 90.554 501.681 89.7988C502.051 89.012 502.341 88.0207 502.552 86.8248C502.79 85.629 502.962 84.3859 503.068 83.0957C503.173 81.8054 503.226 80.6252 503.226 79.5553C503.226 77.5727 503.054 76.2667 502.711 75.6373C502.368 75.0078 501.918 74.6932 501.364 74.6932C500.73 74.6932 500.03 74.9606 499.263 75.4957C498.497 76.0307 497.758 76.7544 497.044 77.6671C496.331 78.5797 495.723 79.6182 495.221 80.7826C494.508 82.419 494.059 84.2128 493.874 86.164C493.689 88.1151 493.57 90.4911 493.517 93.2919C492.646 93.3863 491.787 93.6224 490.942 94Z" fill="#004D76"/>
<path d="M515.167 94C513.75 94 512.528 93.4225 511.5 92.2681C510.5 91.0823 510 89.288 510 86.8851C510 85.0128 510.319 83.1872 510.958 81.4085C511.597 79.6298 512.431 78.0383 513.458 76.634C514.514 75.1986 515.681 74.0752 516.958 73.2638C518.236 72.4213 519.514 72 520.792 72C522.264 72 523.5 72.5929 524.5 73.7787C525.5 74.9646 526 76.7588 526 79.1617C526 81.0652 525.667 82.9064 525 84.6851C524.361 86.4638 523.514 88.0553 522.458 89.4596C521.403 90.8638 520.236 91.9716 518.958 92.783C517.681 93.5945 516.417 94 515.167 94ZM516.75 91.6596C517.889 91.6596 518.944 91.1759 519.917 90.2085C520.889 89.2099 521.667 87.8993 522.25 86.2766C522.833 84.6539 523.111 82.8908 523.083 80.9872C523.083 79.7702 522.944 78.6624 522.667 77.6638C522.389 76.6652 521.972 75.8695 521.417 75.2766C520.861 74.6525 520.125 74.3404 519.208 74.3404C518.069 74.3404 517.014 74.8397 516.042 75.8383C515.097 76.8369 514.333 78.1475 513.75 79.7702C513.194 81.3617 512.917 83.1092 512.917 85.0128C512.917 87.0412 513.25 88.6638 513.917 89.8809C514.583 91.0667 515.528 91.6596 516.75 91.6596Z" fill="#004D76"/>
<path d="M535.167 94C533.75 94 532.528 93.4225 531.5 92.2681C530.5 91.0823 530 89.288 530 86.8851C530 85.0128 530.32 83.1872 530.958 81.4085C531.597 79.6298 532.431 78.0383 533.458 76.634C534.514 75.1986 535.681 74.0752 536.958 73.2638C538.236 72.4213 539.514 72 540.792 72C542.264 72 543.5 72.5929 544.5 73.7787C545.5 74.9646 546 76.7588 546 79.1617C546 81.0652 545.667 82.9064 545 84.6851C544.361 86.4638 543.514 88.0553 542.458 89.4596C541.403 90.8638 540.236 91.9716 538.958 92.783C537.681 93.5945 536.417 94 535.167 94ZM536.75 91.6596C537.889 91.6596 538.945 91.1759 539.917 90.2085C540.889 89.2099 541.667 87.8993 542.25 86.2766C542.833 84.6539 543.111 82.8908 543.083 80.9872C543.083 79.7702 542.945 78.6624 542.667 77.6638C542.389 76.6652 541.972 75.8695 541.417 75.2766C540.861 74.6525 540.125 74.3404 539.208 74.3404C538.07 74.3404 537.014 74.8397 536.042 75.8383C535.097 76.8369 534.333 78.1475 533.75 79.7702C533.195 81.3617 532.917 83.1092 532.917 85.0128C532.917 87.0412 533.25 88.6638 533.917 89.8809C534.583 91.0667 535.528 91.6596 536.75 91.6596Z" fill="#004D76"/>
<path d="M551.391 94C550.818 93.1818 550.532 91.9387 550.532 90.2708C550.532 88.6658 550.589 86.8721 550.704 84.8894C550.818 82.8754 550.961 80.7984 551.133 78.6584C551.333 76.487 551.519 74.347 551.691 72.2385C551.863 70.13 552.005 68.1474 552.12 66.2907C552.234 64.4025 552.292 62.7661 552.292 61.3814C552.292 60.7519 552.163 60.4373 551.906 60.4373C551.619 60.4373 551.204 60.7519 550.661 61.3814C550.117 61.9793 549.473 62.7346 548.73 63.6472L548 62.8919C548.515 62.1681 549.144 61.3499 549.888 60.4373C550.632 59.4932 551.419 58.612 552.249 57.7938C553.078 56.9755 553.851 56.3776 554.567 56C554.738 56.4091 554.867 56.9441 554.953 57.605C555.039 58.2344 555.082 58.9425 555.082 59.7292C555.082 61.2083 555.024 62.9077 554.91 64.8273C554.795 66.747 554.652 68.7768 554.481 70.9168C554.309 73.0567 554.123 75.1967 553.923 77.3366C553.751 79.4766 553.608 81.5221 553.494 83.4733C553.379 85.3929 553.322 87.1081 553.322 88.6186C553.322 88.9648 553.365 89.311 553.451 89.6571C553.565 90.0033 553.765 90.1764 554.051 90.1764C554.681 90.1764 555.768 89.2481 557.313 87.3913L558 88.1466C557.513 88.8389 556.884 89.5785 556.112 90.3652C555.339 91.1205 554.538 91.8286 553.708 92.4894C552.878 93.1189 552.106 93.6224 551.391 94Z" fill="#004D76"/>
<path d="M192.314 209.138C161.033 195.371 144.492 181.427 137.277 162.745C132.236 149.692 132.939 139.789 139.886 126.016C164.655 76.9081 275.522 54.434 357.963 81.8077C374.593 87.3303 403.712 102.901 401.921 105.314C401.369 106.058 388.541 104.921 373.414 102.787C352.896 99.892 338.672 99.8592 317.405 102.666C227.188 114.534 181.141 160.791 214.63 205.908C222.953 217.12 222.953 217.121 216.352 216.97C212.721 216.89 201.905 213.358 192.314 209.138Z" fill="#CAF0F8"/>
<path d="M351.688 142.594C351.688 135.406 353.562 129.698 357.312 125.469C361.062 121.24 366.375 119.125 373.25 119.125C377.396 119.125 380.646 119.656 383 120.719C385.375 121.781 387.458 123.427 389.25 125.656C390.333 127.01 390.302 128.062 389.156 128.812L385.594 131.125C384.552 131.812 383.438 131.51 382.25 130.219C381.271 129.156 380.031 128.271 378.531 127.562C377.031 126.854 375.375 126.5 373.562 126.5C369.188 126.5 366.073 127.885 364.219 130.656C362.365 133.406 361.438 137.385 361.438 142.594C361.438 147.802 362.365 151.792 364.219 154.562C366.073 157.312 369.188 158.688 373.562 158.688C375.688 158.688 377.521 158.479 379.062 158.062C380.604 157.625 382.062 156.844 383.438 155.719V150.125H376.656C375.094 150.125 374.312 149.448 374.312 148.094V144.406C374.312 143.052 375.094 142.375 376.656 142.375H390.219C391.781 142.375 392.562 143.052 392.562 144.406V160.281C389.646 162.427 386.698 163.927 383.719 164.781C380.76 165.635 377.271 166.062 373.25 166.062C366.479 166.062 361.188 163.948 357.375 159.719C353.583 155.49 351.688 149.781 351.688 142.594ZM398.562 148.594C398.562 143.281 399.927 139.115 402.656 136.094C405.406 133.073 409.49 131.562 414.906 131.562C420.323 131.562 424.396 133.073 427.125 136.094C429.875 139.115 431.25 143.281 431.25 148.594C431.25 153.906 429.875 158.073 427.125 161.094C424.396 164.115 420.323 165.625 414.906 165.625C409.49 165.625 405.406 164.115 402.656 161.094C399.927 158.073 398.562 153.906 398.562 148.594ZM407.812 148.594C407.812 152.552 408.417 155.365 409.625 157.031C410.854 158.677 412.615 159.5 414.906 159.5C417.198 159.5 418.948 158.677 420.156 157.031C421.385 155.365 422 152.552 422 148.594C422 144.635 421.385 141.833 420.156 140.188C418.948 138.521 417.198 137.688 414.906 137.688C412.615 137.688 410.854 138.521 409.625 140.188C408.417 141.833 407.812 144.635 407.812 148.594ZM439.875 165C438.625 165 438 164.375 438 163.125V134.062C438 132.812 438.625 132.188 439.875 132.188H444.812C446.062 132.188 446.688 132.812 446.688 134.062V136.625H446.812C447.354 135.292 448.26 134.115 449.531 133.094C450.802 132.073 452.302 131.562 454.031 131.562C455.219 131.562 456.198 131.708 456.969 132C457.698 132.271 457.979 132.771 457.812 133.5L456.938 137.219C456.75 138.052 456.188 138.302 455.25 137.969C454.708 137.781 454.188 137.688 453.688 137.688C451.688 137.688 450.031 138.885 448.719 141.281C447.406 143.677 446.75 147.167 446.75 151.75V163.125C446.75 164.375 446.125 165 444.875 165H439.875ZM464.438 165C463.188 165 462.562 164.375 462.562 163.125V134.062C462.562 132.812 463.188 132.188 464.438 132.188H469.375C470.625 132.188 471.25 132.812 471.25 134.062V136.625H471.375C471.917 135.292 472.823 134.115 474.094 133.094C475.365 132.073 476.865 131.562 478.594 131.562C479.781 131.562 480.76 131.708 481.531 132C482.26 132.271 482.542 132.771 482.375 133.5L481.5 137.219C481.312 138.052 480.75 138.302 479.812 137.969C479.271 137.781 478.75 137.688 478.25 137.688C476.25 137.688 474.594 138.885 473.281 141.281C471.969 143.677 471.312 147.167 471.312 151.75V163.125C471.312 164.375 470.688 165 469.438 165H464.438ZM485.375 148.594C485.375 143.323 486.688 139.167 489.312 136.125C491.958 133.083 495.688 131.562 500.5 131.562C506.083 131.562 510.229 133 512.938 135.875C515.646 138.75 517 143.375 517 149.75C517 151 516.417 151.625 515.25 151.625H494.625C494.958 155.083 495.812 157.26 497.188 158.156C498.562 159.052 500.156 159.5 501.969 159.5C503.698 159.5 505.021 159.271 505.938 158.812C506.854 158.354 507.625 157.729 508.25 156.938C508.958 156.021 509.833 155.875 510.875 156.5L514 158.406C515.229 159.156 515.406 160.052 514.531 161.094C513.26 162.615 511.771 163.75 510.062 164.5C508.354 165.25 505.656 165.625 501.969 165.625C495.99 165.625 491.729 164.104 489.188 161.062C486.646 158.021 485.375 153.865 485.375 148.594ZM494.656 145.375H508.25C508.25 143.125 507.688 141.292 506.562 139.875C505.438 138.438 503.646 137.719 501.188 137.719C499.229 137.719 497.677 138.406 496.531 139.781C495.385 141.135 494.76 143 494.656 145.375ZM522.062 148.594C522.062 144.01 523.052 140.031 525.031 136.656C527.031 133.26 530.479 131.562 535.375 131.562C537.25 131.562 538.854 131.833 540.188 132.375C541.521 132.917 542.729 134.083 543.812 135.875H543.938C543.854 135.042 543.812 134.208 543.812 133.375V120.75C543.812 119.5 544.438 118.875 545.688 118.875H550.688C551.938 118.875 552.562 119.5 552.562 120.75V163.125C552.562 164.375 551.938 165 550.688 165H545.75C544.708 165 544.146 164.375 544.062 163.125L543.938 161.312H543.812C542.729 163.104 541.521 164.271 540.188 164.812C538.854 165.354 537.25 165.625 535.375 165.625C530.479 165.625 527.031 163.938 525.031 160.562C523.052 157.167 522.062 153.177 522.062 148.594ZM531.312 148.594C531.312 151.927 531.74 154.583 532.594 156.562C533.469 158.521 535.312 159.5 538.125 159.5C539.688 159.5 541.021 158.625 542.125 156.875C543.25 155.104 543.812 152.812 543.812 150V147.188C543.812 144.375 543.25 142.094 542.125 140.344C541.021 138.573 539.688 137.688 538.125 137.688C535.312 137.688 533.469 138.677 532.594 140.656C531.74 142.615 531.312 145.26 531.312 148.594ZM562.938 165C561.688 165 561.062 164.375 561.062 163.125V134.062C561.062 132.812 561.688 132.188 562.938 132.188H567.938C569.188 132.188 569.812 132.812 569.812 134.062V163.125C569.812 164.375 569.188 165 567.938 165H562.938ZM562.938 127.375C561.688 127.375 561.062 126.75 561.062 125.5V121.5C561.062 120.25 561.688 119.625 562.938 119.625H567.938C569.188 119.625 569.812 120.25 569.812 121.5V125.5C569.812 126.75 569.188 127.375 567.938 127.375H562.938ZM571.812 177.781C571.021 177.635 570.719 177.094 570.906 176.156L571.594 172.719C571.781 171.76 572.312 171.448 573.188 171.781C573.562 171.927 574.312 172 575.438 172C576.75 172 577.656 171.312 578.156 169.938C578.656 168.562 578.906 166.646 578.906 164.188V134.062C578.906 132.812 579.531 132.188 580.781 132.188H585.781C587.031 132.188 587.656 132.812 587.656 134.062V165.125C587.656 170.292 586.646 173.75 584.625 175.5C582.604 177.25 579.906 178.125 576.531 178.125C574.656 178.125 573.083 178.01 571.812 177.781ZM580.781 127.375C579.531 127.375 578.906 126.75 578.906 125.5V121.5C578.906 120.25 579.531 119.625 580.781 119.625H585.781C587.031 119.625 587.656 120.25 587.656 121.5V125.5C587.656 126.75 587.031 127.375 585.781 127.375H580.781ZM597.75 165C596.5 165 595.875 164.375 595.875 163.125V120.75C595.875 119.5 596.5 118.875 597.75 118.875H602.75C604 118.875 604.625 119.5 604.625 120.75V143.719C604.625 144.552 604.583 145.385 604.5 146.219H604.625L614.531 133.469C615.198 132.615 616.01 132.188 616.969 132.188H622.094C624.01 132.188 624.333 132.958 623.062 134.5L613.625 145.906L624.562 162.688C625.562 164.229 625.24 165 623.594 165H618.25C617.208 165 616.354 164.458 615.688 163.375L608.594 151.969L604.625 156.75V163.125C604.625 164.375 604 165 602.75 165H597.75ZM352.594 217C351.094 217 350.604 216.312 351.125 214.938L366.438 174.719C367.083 173.031 368.062 172.188 369.375 172.188H373.75C375.062 172.188 376.042 173.031 376.688 174.719L392 214.938C392.521 216.312 392.031 217 390.531 217H385.562C384.188 217 383.229 216.281 382.688 214.844L379.5 206.438H363.625L360.438 214.844C359.896 216.281 358.938 217 357.562 217H352.594ZM366.531 198.688H376.594L372.75 188.75C372.292 187.583 372.01 186.74 371.906 186.219C371.823 185.677 371.729 184.885 371.625 183.844H371.5C371.396 184.885 371.292 185.677 371.188 186.219C371.104 186.74 370.833 187.583 370.375 188.75L366.531 198.688ZM398.688 217C397.438 217 396.812 216.375 396.812 215.125V172.75C396.812 171.5 397.438 170.875 398.688 170.875H403.688C404.938 170.875 405.562 171.5 405.562 172.75V195.719C405.562 196.552 405.521 197.385 405.438 198.219H405.562L415.469 185.469C416.135 184.615 416.948 184.188 417.906 184.188H423.031C424.948 184.188 425.271 184.958 424 186.5L414.562 197.906L425.5 214.688C426.5 216.229 426.177 217 424.531 217H419.188C418.146 217 417.292 216.458 416.625 215.375L409.531 203.969L405.562 208.75V215.125C405.562 216.375 404.938 217 403.688 217H398.688ZM433.562 217C432.312 217 431.688 216.375 431.688 215.125V172.75C431.688 171.5 432.312 170.875 433.562 170.875H438.562C439.812 170.875 440.438 171.5 440.438 172.75V195.719C440.438 196.552 440.396 197.385 440.312 198.219H440.438L450.344 185.469C451.01 184.615 451.823 184.188 452.781 184.188H457.906C459.823 184.188 460.146 184.958 458.875 186.5L449.438 197.906L460.375 214.688C461.375 216.229 461.052 217 459.406 217H454.062C453.021 217 452.167 216.458 451.5 215.375L444.406 203.969L440.438 208.75V215.125C440.438 216.375 439.812 217 438.562 217H433.562ZM468.438 217C467.188 217 466.562 216.375 466.562 215.125V186.062C466.562 184.812 467.188 184.188 468.438 184.188H473.375C474.625 184.188 475.25 184.812 475.25 186.062V188.625H475.375C475.917 187.292 476.823 186.115 478.094 185.094C479.365 184.073 480.865 183.562 482.594 183.562C483.781 183.562 484.76 183.708 485.531 184C486.26 184.271 486.542 184.771 486.375 185.5L485.5 189.219C485.312 190.052 484.75 190.302 483.812 189.969C483.271 189.781 482.75 189.688 482.25 189.688C480.25 189.688 478.594 190.885 477.281 193.281C475.969 195.677 475.312 199.167 475.312 203.75V215.125C475.312 216.375 474.688 217 473.438 217H468.438ZM491.062 203.375V186.062C491.062 184.812 491.688 184.188 492.938 184.188H497.938C499.188 184.188 499.812 184.812 499.812 186.062V201.125C499.812 205.667 500.125 208.531 500.75 209.719C501.375 210.906 502.688 211.5 504.688 211.5C506.812 211.5 508.427 210.656 509.531 208.969C510.635 207.26 511.188 203.729 511.188 198.375V186.062C511.188 184.812 511.812 184.188 513.062 184.188H518.062C519.312 184.188 519.938 184.812 519.938 186.062V215.125C519.938 216.375 519.312 217 518.062 217H513.125C511.875 217 511.25 216.375 511.25 215.125V213.312H511.125C510.167 214.958 508.948 216.094 507.469 216.719C505.99 217.323 504.24 217.625 502.219 217.625C499.031 217.625 496.375 216.604 494.25 214.562C492.125 212.521 491.062 208.792 491.062 203.375ZM530.312 217C529.062 217 528.438 216.375 528.438 215.125V186.062C528.438 184.812 529.062 184.188 530.312 184.188H535.25C536.5 184.188 537.125 184.812 537.125 186.062V187.875H537.25C537.854 186.542 538.875 185.49 540.312 184.719C541.75 183.948 543.094 183.562 544.344 183.562C546.844 183.562 548.781 184.146 550.156 185.312C551.552 186.479 552.51 187.781 553.031 189.219H553.156C554.969 186.865 556.604 185.333 558.062 184.625C559.542 183.917 561.427 183.562 563.719 183.562C566.802 183.562 569.396 184.583 571.5 186.625C573.625 188.667 574.688 192.396 574.688 197.812V215.125C574.688 216.375 574.062 217 572.812 217H567.812C566.562 217 565.938 216.375 565.938 215.125V200.062C565.938 195.521 565.625 192.656 565 191.469C564.396 190.281 563.312 189.688 561.75 189.688C560.292 189.688 558.958 190.542 557.75 192.25C556.542 193.958 555.938 197.479 555.938 202.812V215.125C555.938 216.375 555.312 217 554.062 217H549.062C547.812 217 547.188 216.375 547.188 215.125V200.062C547.188 195.521 546.875 192.656 546.25 191.469C545.646 190.281 544.562 189.688 543 189.688C541.542 189.688 540.208 190.542 539 192.25C537.792 193.938 537.188 197.458 537.188 202.812V215.125C537.188 216.375 536.562 217 535.312 217H530.312ZM603.25 200.594C603.25 195.323 604.562 191.167 607.188 188.125C609.833 185.083 613.562 183.562 618.375 183.562C623.958 183.562 628.104 185 630.812 187.875C633.521 190.75 634.875 195.375 634.875 201.75C634.875 203 634.292 203.625 633.125 203.625H612.5C612.833 207.083 613.688 209.26 615.062 210.156C616.438 211.052 618.031 211.5 619.844 211.5C621.573 211.5 622.896 211.271 623.812 210.812C624.729 210.354 625.5 209.729 626.125 208.938C626.833 208.021 627.708 207.875 628.75 208.5L631.875 210.406C633.104 211.156 633.281 212.052 632.406 213.094C631.135 214.615 629.646 215.75 627.938 216.5C626.229 217.25 623.531 217.625 619.844 217.625C613.865 217.625 609.604 216.104 607.062 213.062C604.521 210.021 603.25 205.865 603.25 200.594ZM612.531 197.375H626.125C626.125 195.125 625.562 193.292 624.438 191.875C623.312 190.438 621.521 189.719 619.062 189.719C617.104 189.719 615.552 190.406 614.406 191.781C613.26 193.135 612.635 195 612.531 197.375ZM643.5 217C642.042 217 641.312 216.219 641.312 214.656V210.469C641.312 208.906 642.042 208.125 643.5 208.125H648.25C649.708 208.125 650.438 208.906 650.438 210.469V214.656C650.438 216.219 649.708 217 648.25 217H643.5ZM658.812 200.594C658.812 195.281 660.177 191.115 662.906 188.094C665.656 185.073 669.74 183.562 675.156 183.562C680.573 183.562 684.646 185.073 687.375 188.094C690.125 191.115 691.5 195.281 691.5 200.594C691.5 205.906 690.125 210.073 687.375 213.094C684.646 216.115 680.573 217.625 675.156 217.625C669.74 217.625 665.656 216.115 662.906 213.094C660.177 210.073 658.812 205.906 658.812 200.594ZM668.062 200.594C668.062 204.552 668.667 207.365 669.875 209.031C671.104 210.677 672.865 211.5 675.156 211.5C677.448 211.5 679.198 210.677 680.406 209.031C681.635 207.365 682.25 204.552 682.25 200.594C682.25 196.635 681.635 193.833 680.406 192.188C679.198 190.521 677.448 189.688 675.156 189.688C672.865 189.688 671.104 190.521 669.875 192.188C668.667 193.833 668.062 196.635 668.062 200.594Z" fill="#004D76"/>
</svg>