<svg xmlns="http://www.w3.org/2000/svg" fill="none" viewBox="0 0 502 146"><g filter="url(#a)"><path fill="#004D76" d="M63.319 138.191C29.353 124.517 11.392 110.67 3.558 92.114c-5.474-12.964-4.71-22.8 2.834-36.48C33.286 6.862 153.668-15.46 243.183 11.729c18.058 5.484 49.676 20.95 47.731 23.346-.599.739-14.528-.39-30.953-2.51-22.279-2.875-37.724-2.908-60.815-.12C101.186 44.23 51.187 90.174 87.55 134.983c9.037 11.137 9.037 11.137 1.87 10.988-3.943-.08-15.688-3.58-26.101-7.771v-.009Z"/></g><g fill="#004D76" filter="url(#b)"><path d="M320.176 58c-.995 0-1.824-.154-2.487-.46a5.99 5.99 0 0 1-1.658-1.288 27.43 27.43 0 0 1-1.326-1.702l-8.539-12.096c-.304-.46-.553-.767-.746-.92-.166-.153-.401-.245-.705-.276l.083-1.104c2.763.307 4.988-.061 6.673-1.104 1.714-1.073 2.57-2.836 2.57-5.289 0-2.024-.552-3.403-1.658-4.14-1.105-.735-2.501-1.103-4.186-1.103-1.52 0-2.543.23-3.067.69-.498.429-.788 1.303-.871 2.621l-1.326 21.388c-.056 1.073-.014 1.855.124 2.345.138.49.428.813.87.966.47.123 1.12.2 1.949.23v1.058H298v-1.058c.525-.03.912-.107 1.161-.23.276-.153.47-.475.58-.966.138-.49.235-1.272.29-2.345l1.327-21.388c.082-1.073.041-1.84-.125-2.3-.138-.49-.442-.812-.912-.965-.442-.154-1.077-.245-1.906-.276V27.23h3.357c1.188 0 2.197-.015 3.026-.046a77.46 77.46 0 0 1 2.28-.138c.718-.03 1.464-.046 2.238-.046 2.543 0 4.518.583 5.928 1.748 1.409 1.134 2.114 2.652 2.114 4.553 0 1.41-.36 2.683-1.078 3.818-.719 1.134-1.686 2.07-2.902 2.805-1.216.736-2.597 1.212-4.145 1.426v.092l8.125 11.637a53.27 53.27 0 0 0 1.74 2.345c.442.522.871.874 1.285 1.058.442.184.981.276 1.617.276v1.058c-.332.061-.649.107-.953.138-.305.03-.595.046-.871.046ZM326.608 59c-.554-.803-.831-2.023-.831-3.66 0-.804.042-1.808.125-3.013.111-1.204.235-2.456.373-3.753.139-1.297.25-2.487.333-3.568.111-1.081.166-1.915.166-2.502 0-.618-.125-.927-.374-.927-.277 0-.789.324-1.536.973a19.628 19.628 0 0 0-2.2 2.27l-.664-.74c.498-.68 1.162-1.484 1.992-2.41a37.112 37.112 0 0 1 2.616-2.642c.913-.834 1.701-1.436 2.366-1.807.166.402.29.927.373 1.576.083.618.125 1.313.125 2.085 0 .68-.055 1.606-.166 2.78a110.22 110.22 0 0 1-.332 3.66 311.156 311.156 0 0 0-.374 3.615 40.117 40.117 0 0 0-.125 2.78c0 .34.042.68.125 1.02.111.34.305.51.581.51.609 0 1.661-.912 3.155-2.734l.664.741c-.47.68-1.079 1.406-1.826 2.178a30.768 30.768 0 0 1-2.325 2.085c-.802.618-1.549 1.112-2.241 1.483Zm1.743-26.644c-.443 0-.775-.14-.996-.417-.221-.31-.332-.68-.332-1.112 0-.71.263-1.36.788-1.947.554-.586 1.149-.88 1.785-.88.471 0 .803.154.996.463.222.278.333.634.333 1.066 0 .772-.277 1.437-.831 1.993-.525.556-1.106.834-1.743.834ZM333 69v-1.06c1.381-.155 2.484-1 3.307-2.537.823-1.507 1.368-3.92 1.633-7.241.054-.646.12-1.522.199-2.629.08-1.107.173-2.306.279-3.597.106-1.322.2-2.614.279-3.874.106-1.291.186-2.43.239-3.413.054-1.015.08-1.752.08-2.214 0-.615-.12-.922-.359-.922-.265 0-.757.323-1.474.968a19.14 19.14 0 0 0-2.111 2.26l-.638-.738c.478-.676 1.116-1.475 1.913-2.398a36.022 36.022 0 0 1 2.51-2.629c.876-.83 1.633-1.43 2.27-1.798.16.4.279.922.359 1.568.08.615.12 1.306.12 2.075 0 .554-.04 1.445-.12 2.675-.053 1.2-.133 2.552-.239 4.059a3242.212 3242.212 0 0 0-.598 8.67 98.158 98.158 0 0 1-.199 2.629c-.133 1.937-.518 3.659-1.155 5.165-.611 1.538-1.448 2.737-2.51 3.597-1.062.892-2.324 1.353-3.785 1.384Zm7.53-36.665c-.425 0-.744-.138-.956-.415-.213-.307-.319-.676-.319-1.107 0-.707.252-1.353.757-1.937.531-.584 1.102-.876 1.713-.876.452 0 .771.154.956.461.213.277.319.63.319 1.06 0 .77-.265 1.43-.797 1.984-.504.554-1.062.83-1.673.83ZM350.196 59c-.744 0-1.531-.14-2.362-.421-.801-.281-1.474-.702-2.018-1.264-.544-.562-.816-1.264-.816-2.106 0-.812.272-1.514.816-2.107a25.558 25.558 0 0 1 1.932-1.966l.688.75c-.43.436-.73.81-.902 1.122a2.216 2.216 0 0 0-.215.937c0 .749.329 1.388.988 1.919.687.53 1.603.796 2.748.796 1.346 0 2.463-.375 3.35-1.124.887-.749 1.331-1.747 1.331-2.996 0-.81-.286-1.497-.859-2.06-.572-.56-1.66-1.279-3.263-2.152a43.234 43.234 0 0 1-2.32-1.358c-.715-.468-1.302-.983-1.76-1.544a3.141 3.141 0 0 1-.687-1.966c0-.874.315-1.81.944-2.809.659-.998 1.518-1.857 2.577-2.574A6.14 6.14 0 0 1 353.89 37a6.33 6.33 0 0 1 2.834.655c.887.437 1.646 1.155 2.276 2.154l-2.018 3.791-.859-.468c.486-1.03.601-1.872.343-2.528a2.653 2.653 0 0 0-1.288-1.544 4.155 4.155 0 0 0-2.019-.515c-1.088 0-1.989.374-2.705 1.123-.687.718-1.031 1.623-1.031 2.715 0 .343.072.655.215.936.143.25.472.562.988.936.544.344 1.359.827 2.448 1.451 1.316.718 2.319 1.311 3.006 1.78.687.467 1.159.935 1.417 1.403.258.468.386 1.061.386 1.78 0 1.466-.372 2.839-1.116 4.118a8.932 8.932 0 0 1-2.834 3.043c-1.174.78-2.42 1.17-3.737 1.17ZM366.531 59c-.79 0-1.538-.234-2.245-.702-.68-.437-1.239-1.155-1.674-2.153-.408-.999-.612-2.31-.612-3.932 0-1.966.3-3.854.898-5.664.626-1.81 1.442-3.433 2.449-4.868 1.007-1.436 2.109-2.575 3.306-3.417 1.225-.843 2.422-1.264 3.592-1.264.843 0 1.565.218 2.163.655.599.406 1.129.968 1.592 1.685l-2.735 5.43-.857-.374c.599-1.436.898-2.575.898-3.417.027-.843-.136-1.436-.49-1.779-.353-.375-.816-.562-1.387-.562-.871 0-1.701.36-2.49 1.077-.79.718-1.497 1.67-2.123 2.855a18.535 18.535 0 0 0-1.428 3.932 17.741 17.741 0 0 0-.531 4.26c0 1.654.259 2.933.776 3.838.517.905 1.265 1.357 2.245 1.357.87 0 1.863-.39 2.979-1.17 1.143-.811 2.286-2.137 3.429-3.978l.857.374c-1.306 2.621-2.721 4.587-4.245 5.898-1.524 1.28-2.98 1.919-4.367 1.919ZM379.942 59c.132-1.605.277-3.525.436-5.759a889.65 889.65 0 0 0 1.07-14.68c.158-2.487.277-4.784.356-6.893.106-2.14.159-3.902.159-5.287 0-.63-.119-.944-.357-.944-.264 0-.647.315-1.149.944a55.799 55.799 0 0 0-1.783 2.266l-.674-.755a48.02 48.02 0 0 1 1.744-2.455 27.76 27.76 0 0 1 2.179-2.643c.766-.819 1.479-1.416 2.14-1.794.158.41.277.944.357 1.605.079.63.118 1.337.118 2.124 0 1.7-.066 3.635-.198 5.806-.106 2.14-.251 4.406-.436 6.798a778.553 778.553 0 0 1-.594 7.27h.079a17.58 17.58 0 0 1 2.497-3.777c1.03-1.196 2.087-2.156 3.17-2.88 1.11-.755 2.087-1.132 2.932-1.132.819 0 1.52.44 2.101 1.321.607.882.911 2.534.911 4.957 0 1.7-.172 3.462-.515 5.287a24.516 24.516 0 0 1-1.466 5.145c-.634 1.574-1.427 2.864-2.378 3.871-.951 1.007-2.034 1.542-3.249 1.605a4.57 4.57 0 0 1-.08-2.077c.133-.755.436-1.306.912-1.652.158.157.343.315.555.472.211.126.422.189.634.189.501 0 .924-.378 1.268-1.133.37-.787.66-1.778.871-2.974.238-1.196.41-2.44.516-3.73.105-1.29.158-2.47.158-3.54 0-1.982-.172-3.288-.515-3.918-.343-.63-.793-.944-1.347-.944-.634 0-1.334.268-2.101.803-.766.535-1.505 1.258-2.219 2.171a14.094 14.094 0 0 0-1.823 3.116c-.713 1.636-1.162 3.43-1.347 5.381-.185 1.951-.304 4.327-.357 7.128-.871.094-1.73.33-2.575.708ZM404.167 59c-1.417 0-2.639-.578-3.667-1.732-1-1.186-1.5-2.98-1.5-5.383 0-1.872.319-3.698.958-5.477.639-1.778 1.473-3.37 2.5-4.774 1.056-1.435 2.223-2.559 3.5-3.37 1.278-.843 2.556-1.264 3.834-1.264 1.472 0 2.708.593 3.708 1.779s1.5 2.98 1.5 5.383c0 1.903-.333 3.744-1 5.523-.639 1.779-1.486 3.37-2.542 4.775-1.055 1.404-2.222 2.512-3.5 3.323-1.277.811-2.541 1.217-3.791 1.217Zm1.583-2.34c1.139 0 2.194-.484 3.167-1.451.972-1 1.75-2.31 2.333-3.932.583-1.623.861-3.386.833-5.29 0-1.217-.139-2.325-.416-3.323-.278-.999-.695-1.794-1.25-2.387-.556-.624-1.292-.937-2.209-.937-1.139 0-2.194.5-3.166 1.498-.945.999-1.709 2.31-2.292 3.932-.556 1.592-.833 3.34-.833 5.243 0 2.028.333 3.65 1 4.868.666 1.186 1.611 1.779 2.833 1.779ZM424.167 59c-1.417 0-2.639-.578-3.667-1.732-1-1.186-1.5-2.98-1.5-5.383 0-1.872.32-3.698.958-5.477.639-1.778 1.473-3.37 2.5-4.774 1.056-1.435 2.223-2.559 3.5-3.37 1.278-.843 2.556-1.264 3.834-1.264 1.472 0 2.708.593 3.708 1.779s1.5 2.98 1.5 5.383c0 1.903-.333 3.744-1 5.523-.639 1.779-1.486 3.37-2.542 4.775-1.055 1.404-2.222 2.512-3.5 3.323-1.277.811-2.541 1.217-3.791 1.217Zm1.583-2.34c1.139 0 2.195-.484 3.167-1.451.972-1 1.75-2.31 2.333-3.932.583-1.623.861-3.386.833-5.29 0-1.217-.138-2.325-.416-3.323-.278-.999-.695-1.794-1.25-2.387-.556-.624-1.292-.937-2.209-.937-1.138 0-2.194.5-3.166 1.498-.945.999-1.709 2.31-2.292 3.932-.555 1.592-.833 3.34-.833 5.243 0 2.028.333 3.65 1 4.868.666 1.186 1.611 1.779 2.833 1.779ZM440.391 59c-.573-.818-.859-2.061-.859-3.73 0-1.604.057-3.398.172-5.38.114-2.015.257-4.092.429-6.232.2-2.171.386-4.311.558-6.42.172-2.108.314-4.09.429-5.947.114-1.889.172-3.525.172-4.91 0-.63-.129-.944-.386-.944-.287 0-.702.315-1.245.944a55.618 55.618 0 0 0-1.931 2.266l-.73-.755a47.91 47.91 0 0 1 1.888-2.455 28.318 28.318 0 0 1 2.361-2.643c.829-.819 1.602-1.416 2.318-1.794.171.41.3.944.386 1.605a15.8 15.8 0 0 1 .129 2.124c0 1.48-.058 3.179-.172 5.098-.115 1.92-.258 3.95-.429 6.09-.172 2.14-.358 4.28-.558 6.42-.172 2.14-.315 4.185-.429 6.136a86.943 86.943 0 0 0-.172 5.146c0 .346.043.692.129 1.038.114.346.314.52.6.52.63 0 1.717-.929 3.262-2.786l.687.756c-.487.692-1.116 1.431-1.888 2.218a31.62 31.62 0 0 1-2.404 2.124c-.83.63-1.602 1.133-2.317 1.511Z"/></g><g fill="#004D76" filter="url(#c)"><path d="M256.49 129c-3.04 0-5.872-.655-8.496-1.966-2.603-1.31-4.883-3.114-6.841-5.413-1.936-2.322-3.446-5-4.529-8.035-1.083-3.034-1.624-6.264-1.624-9.689 0-3.679.593-7.035 1.78-10.07 1.187-3.034 2.801-5.655 4.842-7.861 2.041-2.23 4.352-3.943 6.934-5.138 2.603-1.219 5.31-1.828 8.122-1.828 3.081 0 6.101.793 9.058 2.38 2.957 1.586 5.601 4.103 7.934 7.551l-7.684 4.552c-1.333-1.701-2.822-2.966-4.467-3.793-1.624-.828-3.28-1.242-4.966-1.242-1.687 0-3.311.38-4.873 1.138-1.541.759-2.915 1.84-4.123 3.242-1.208 1.402-2.166 3.057-2.874 4.965-.708 1.908-1.062 4.012-1.062 6.31 0 2.138.333 4.138 1 6 .687 1.863 1.624 3.495 2.811 4.897 1.187 1.402 2.561 2.506 4.123 3.31a11.271 11.271 0 0 0 5.06 1.173c1.104 0 2.187-.173 3.249-.517a12.134 12.134 0 0 0 3.092-1.587c.979-.689 1.874-1.551 2.686-2.586.833-1.034 1.562-2.23 2.187-3.586h-6.778v-8.276h16.929c.125 3.563-.343 6.92-1.405 10.069-1.062 3.149-2.582 5.931-4.561 8.345-1.978 2.391-4.289 4.264-6.934 5.621-2.645 1.356-5.508 2.034-8.59 2.034ZM298 129c-2.944 0-5.632-.831-8.064-2.492-2.411-1.662-4.341-3.885-5.792-6.67-1.429-2.809-2.144-5.909-2.144-9.303 0-2.574.416-4.973 1.248-7.196.832-2.247 1.973-4.213 3.424-5.898 1.472-1.708 3.179-3.042 5.12-4.002A13.825 13.825 0 0 1 298 92c2.944 0 5.621.83 8.032 2.492 2.432 1.662 4.363 3.897 5.792 6.705 1.451 2.809 2.176 5.921 2.176 9.338 0 2.551-.416 4.938-1.248 7.161-.832 2.224-1.984 4.19-3.456 5.898a16.056 16.056 0 0 1-5.088 3.967c-1.92.959-3.989 1.439-6.208 1.439Zm0-9.689a6.085 6.085 0 0 0 3.68-1.193c1.088-.819 1.941-1.896 2.56-3.23s.928-2.785.928-4.353c0-1.615-.331-3.089-.992-4.423-.64-1.357-1.504-2.434-2.592-3.23-1.088-.795-2.283-1.193-3.584-1.193-1.344 0-2.56.409-3.648 1.228-1.088.82-1.952 1.896-2.592 3.23-.619 1.334-.928 2.797-.928 4.388 0 1.662.32 3.159.96 4.493.661 1.311 1.536 2.352 2.624 3.125 1.088.772 2.283 1.158 3.584 1.158ZM318.032 128 318 92.98h8.958l.033 2.592a11.715 11.715 0 0 1 3.797-2.627A11.67 11.67 0 0 1 335.43 92c1.19 0 2.38.187 3.57.56l-3.538 9.771a5.733 5.733 0 0 0-2.369-.526 5.688 5.688 0 0 0-3.084.876 6.261 6.261 0 0 0-2.207 2.381c-.541.981-.811 2.09-.811 3.327V128h-8.959ZM343.031 128 343 92.98h8.532l.031 2.592a11.167 11.167 0 0 1 3.616-2.627A10.66 10.66 0 0 1 359.6 92c1.133 0 2.267.187 3.4.56l-3.369 9.771a5.243 5.243 0 0 0-5.194.35c-.886.584-1.586 1.377-2.102 2.381-.515.981-.772 2.09-.772 3.327V128h-8.532ZM379 129c-2.944 0-5.632-.831-8.064-2.492-2.411-1.662-4.341-3.897-5.792-6.705-1.429-2.809-2.144-5.91-2.144-9.303 0-2.551.416-4.938 1.248-7.161.832-2.247 1.973-4.213 3.424-5.898 1.472-1.708 3.179-3.042 5.12-4.002A13.825 13.825 0 0 1 379 92c2.539 0 4.853.597 6.944 1.79 2.112 1.194 3.893 2.82 5.344 4.88 1.472 2.059 2.517 4.388 3.136 6.986.64 2.597.747 5.3.32 8.109h-22.208a9.144 9.144 0 0 0 1.28 2.808 6.997 6.997 0 0 0 2.176 1.966c.875.491 1.877.749 3.008.772a5.468 5.468 0 0 0 3.072-.842c.939-.585 1.739-1.369 2.4-2.352l9.024 2.281c-1.301 3.113-3.243 5.664-5.824 7.653C385.091 128.017 382.2 129 379 129Zm-6.784-22.397h13.6a9.022 9.022 0 0 0-1.408-3.159 7.481 7.481 0 0 0-2.4-2.212 5.839 5.839 0 0 0-3.008-.807 5.952 5.952 0 0 0-3.008.807c-.917.539-1.707 1.276-2.368 2.212-.64.913-1.109 1.966-1.408 3.159ZM423.496 76H432v52.097h-8.504v-3.682a11.792 11.792 0 0 1-3.513 3.3c-1.397.857-2.989 1.285-4.776 1.285-2.239 0-4.334-.475-6.285-1.424-1.952-.949-3.677-2.258-5.177-3.925-1.479-1.69-2.639-3.635-3.482-5.834-.842-2.2-1.263-4.562-1.263-7.086 0-2.523.421-4.885 1.263-7.085.843-2.2 2.003-4.133 3.482-5.8 1.5-1.69 3.225-3.01 5.177-3.96 1.951-.949 4.046-1.423 6.285-1.423 1.787 0 3.379.428 4.776 1.285a11.23 11.23 0 0 1 3.513 3.3V76Zm-8.165 43.796c1.396 0 2.66-.405 3.789-1.215 1.13-.811 2.024-1.899 2.681-3.265.657-1.389.986-2.918.986-4.585 0-1.69-.329-3.218-.986-4.584-.657-1.366-1.551-2.455-2.681-3.265a6.35 6.35 0 0 0-3.789-1.216 6.535 6.535 0 0 0-3.852 1.216c-1.15.81-2.064 1.91-2.742 3.3-.678 1.366-1.017 2.882-1.017 4.549 0 1.667.339 3.196 1.017 4.585.698 1.366 1.622 2.454 2.773 3.265a6.487 6.487 0 0 0 3.821 1.215ZM440.064 92.824h8.84V128h-8.84V92.824Zm4.484-4.045c-1.281 0-2.359-.47-3.235-1.407-.875-.938-1.313-2.099-1.313-3.483 0-1.383.438-2.544 1.313-3.482.876-.938 1.943-1.407 3.203-1.407 1.26 0 2.317.469 3.171 1.407.875.938 1.313 2.099 1.313 3.482 0 1.384-.427 2.545-1.281 3.483-.833.938-1.89 1.407-3.171 1.407ZM450 146v-9.769a5.396 5.396 0 0 0 3.006-.884c.906-.567 1.628-1.345 2.166-2.336.539-.991.809-2.089.809-3.292v-36.81h8.922v36.81c0 2.997-.668 5.722-2.004 8.176-1.315 2.454-3.104 4.412-5.367 5.875-2.241 1.487-4.752 2.23-7.532 2.23Zm10.506-57.16c-1.293 0-2.381-.472-3.265-1.416-.883-.944-1.325-2.112-1.325-3.504s.442-2.56 1.325-3.504c.884-.944 1.962-1.416 3.233-1.416 1.272 0 2.338.472 3.201 1.416.883.944 1.325 2.112 1.325 3.504s-.431 2.56-1.293 3.504c-.841.944-1.907 1.415-3.201 1.415ZM501.935 128h-10.258l-6.838-12.653-3.936 5.026V128H472V76h8.903v29.501l9.484-12.168H502l-11.065 14.248 11 20.419Z"/></g><g filter="url(#d)"><path fill="#CAF0F8" d="M139.213 140.758c-22.644-9.178-34.618-18.473-39.841-30.928-3.649-8.702-3.14-15.304 1.889-24.486 17.93-32.739 98.184-47.721 157.861-29.472 12.039 3.682 33.117 14.062 31.821 15.67-.4.497-9.685-.262-20.636-1.684-14.853-1.93-25.149-1.952-40.543-.08-65.307 7.911-98.64 38.749-74.397 68.827 6.024 7.475 6.024 7.476 1.246 7.375-2.628-.053-10.458-2.408-17.4-5.222Z"/></g><defs><filter id="a" width="291" height="150" x="0" y="0" color-interpolation-filters="sRGB" filterUnits="userSpaceOnUse"><feFlood flood-opacity="0" result="BackgroundImageFix"/><feBlend in="SourceGraphic" in2="BackgroundImageFix" result="shape"/><feColorMatrix in="SourceAlpha" result="hardAlpha" values="0 0 0 0 0 0 0 0 0 0 0 0 0 0 0 0 0 0 127 0"/><feOffset dy="4"/><feGaussianBlur stdDeviation="2"/><feComposite in2="hardAlpha" k2="-1" k3="1" operator="arithmetic"/><feColorMatrix values="0 0 0 0 0 0 0 0 0 0 0 0 0 0 0 0 0 0 0.25 0"/><feBlend in2="shape" result="effect1_innerShadow_0_1"/></filter><filter id="b" width="149" height="52" x="298" y="21" color-interpolation-filters="sRGB" filterUnits="userSpaceOnUse"><feFlood flood-opacity="0" result="BackgroundImageFix"/><feBlend in="SourceGraphic" in2="BackgroundImageFix" result="shape"/><feColorMatrix in="SourceAlpha" result="hardAlpha" values="0 0 0 0 0 0 0 0 0 0 0 0 0 0 0 0 0 0 127 0"/><feOffset dy="4"/><feGaussianBlur stdDeviation="2"/><feComposite in2="hardAlpha" k2="-1" k3="1" operator="arithmetic"/><feColorMatrix values="0 0 0 0 0 0 0 0 0 0 0 0 0 0 0 0 0 0 0.25 0"/><feBlend in2="shape" result="effect1_innerShadow_0_1"/></filter><filter id="c" width="267" height="74" x="235" y="76" color-interpolation-filters="sRGB" filterUnits="userSpaceOnUse"><feFlood flood-opacity="0" result="BackgroundImageFix"/><feBlend in="SourceGraphic" in2="BackgroundImageFix" result="shape"/><feColorMatrix in="SourceAlpha" result="hardAlpha" values="0 0 0 0 0 0 0 0 0 0 0 0 0 0 0 0 0 0 127 0"/><feOffset dy="4"/><feGaussianBlur stdDeviation="2"/><feComposite in2="hardAlpha" k2="-1" k3="1" operator="arithmetic"/><feColorMatrix values="0 0 0 0 0 0 0 0 0 0 0 0 0 0 0 0 0 0 0.25 0"/><feBlend in2="shape" result="effect1_innerShadow_0_1"/></filter><filter id="d" width="194" height="102" x="97" y="48" color-interpolation-filters="sRGB" filterUnits="userSpaceOnUse"><feFlood flood-opacity="0" result="BackgroundImageFix"/><feBlend in="SourceGraphic" in2="BackgroundImageFix" result="shape"/><feColorMatrix in="SourceAlpha" result="hardAlpha" values="0 0 0 0 0 0 0 0 0 0 0 0 0 0 0 0 0 0 127 0"/><feOffset dy="4"/><feGaussianBlur stdDeviation="2"/><feComposite in2="hardAlpha" k2="-1" k3="1" operator="arithmetic"/><feColorMatrix values="0 0 0 0 0 0 0 0 0 0 0 0 0 0 0 0 0 0 0.25 0"/><feBlend in2="shape" result="effect1_innerShadow_0_1"/></filter></defs></svg>